<?xml version="1.0" encoding="UTF-8"?>
<svg width="48" height="48" version="1.1" viewBox="0 0 12.7 12.7" xmlns="http://www.w3.org/2000/svg" xmlns:cc="http://creativecommons.org/ns#" xmlns:dc="http://purl.org/dc/elements/1.1/" xmlns:rdf="http://www.w3.org/1999/02/22-rdf-syntax-ns#">
 <metadata>
  <rdf:RDF>
   <cc:Work rdf:about="">
    <dc:format>image/svg+xml</dc:format>
    <dc:type rdf:resource="http://purl.org/dc/dcmitype/StillImage"/>
    <dc:title/>
   </cc:Work>
  </rdf:RDF>
 </metadata>
 <path d="m6.3406 1.659c-1.4296 0.0021676-2.8585 0.49015-4.0193 1.4638-2.3217 1.9472-2.9178 5.2885-1.4124 7.9183l1.1002-0.62976c-1.2047-2.1046-0.73123-4.7588 1.1268-6.3171 1.858-1.5583 4.5544-1.5626 6.4171-0.0099s2.344 4.2058 1.1456 6.314l1.102 0.62636c1.4974-2.6343 0.89133-5.9738-1.4362-7.914-1.1638-0.9701-2.594-1.4539-4.0237-1.4517z" color="#000000" color-rendering="auto" dominant-baseline="auto" fill="#b3b3b3" image-rendering="auto" shape-rendering="auto" solid-color="#000000" stop-color="#000000" style="font-feature-settings:normal;font-variant-alternates:normal;font-variant-caps:normal;font-variant-east-asian:normal;font-variant-ligatures:normal;font-variant-numeric:normal;font-variant-position:normal;font-variation-settings:normal;inline-size:0;isolation:auto;mix-blend-mode:normal;paint-order:stroke markers fill;shape-margin:0;shape-padding:0;text-decoration-color:#000000;text-decoration-line:none;text-decoration-style:solid;text-indent:0;text-orientation:mixed;text-transform:none;white-space:normal"/>
 <g fill="#ff0044">
  <path d="m2.6362 2.8754c-0.10692 0.078671-0.21201 0.16097-0.31491 0.24728-0.26686 0.22382-0.51066 0.46627-0.73135 0.72373l4.296 5.0643 1.0874-0.92237z" color="#000000" color-rendering="auto" dominant-baseline="auto" image-rendering="auto" shape-rendering="auto" solid-color="#000000" stop-color="#000000" style="font-feature-settings:normal;font-variant-alternates:normal;font-variant-caps:normal;font-variant-east-asian:normal;font-variant-ligatures:normal;font-variant-numeric:normal;font-variant-position:normal;font-variation-settings:normal;inline-size:0;isolation:auto;mix-blend-mode:normal;shape-margin:0;shape-padding:0;text-decoration-color:#000000;text-decoration-line:none;text-decoration-style:solid;text-indent:0;text-orientation:mixed;text-transform:none;white-space:normal"/>
  <circle transform="rotate(5.186)" cx="7.1672" cy="7.8339" r=".70708" stop-color="#000000" style="paint-order:stroke markers fill"/>
  <path d="m2.3213 3.1227c-2.3217 1.9472-2.9178 5.2885-1.4124 7.9183l1.1002-0.62976c-1.2047-2.1046-0.73123-4.7588 1.1268-6.3171z" color="#000000" color-rendering="auto" dominant-baseline="auto" image-rendering="auto" shape-rendering="auto" solid-color="#000000" stop-color="#000000" style="font-feature-settings:normal;font-variant-alternates:normal;font-variant-caps:normal;font-variant-east-asian:normal;font-variant-ligatures:normal;font-variant-numeric:normal;font-variant-position:normal;font-variation-settings:normal;inline-size:0;isolation:auto;mix-blend-mode:normal;paint-order:stroke markers fill;shape-margin:0;shape-padding:0;text-decoration-color:#000000;text-decoration-line:none;text-decoration-style:solid;text-indent:0;text-orientation:mixed;text-transform:none;white-space:normal"/>
 </g>
</svg>
