<?xml version="1.0" encoding="UTF-8" standalone="no"?>
<svg
   xmlns:dc="http://purl.org/dc/elements/1.1/"
   xmlns:cc="http://creativecommons.org/ns#"
   xmlns:rdf="http://www.w3.org/1999/02/22-rdf-syntax-ns#"
   xmlns:svg="http://www.w3.org/2000/svg"
   xmlns="http://www.w3.org/2000/svg"
   width="172.09"
   height="145.57"
   version="1.1"
   viewBox="0 0 45.532 38.514"
   id="svg973">
  <metadata
     id="metadata979">
    <rdf:RDF>
      <cc:Work
         rdf:about="">
        <dc:format>image/svg+xml</dc:format>
        <dc:type
           rdf:resource="http://purl.org/dc/dcmitype/StillImage" />
        <dc:title></dc:title>
      </cc:Work>
    </rdf:RDF>
  </metadata>
  <defs
     id="defs977">
    <marker
       style="overflow:visible;"
       id="marker4221"
       refX="0.0"
       refY="0.0"
       orient="auto">
      <path
         transform="scale(0.8) rotate(180) translate(12.5,0)"
         style="fill-rule:evenodd;stroke:#000000;stroke-width:1pt;stroke-opacity:1;fill:#000000;fill-opacity:1"
         d="M 0.0,0.0 L 5.0,-5.0 L -12.5,0.0 L 5.0,5.0 L 0.0,0.0 z "
         id="path4219" />
    </marker>
    <marker
       style="overflow:visible"
       id="Arrow1Lstart"
       refX="0.0"
       refY="0.0"
       orient="auto">
      <path
         transform="scale(0.8) translate(12.5,0)"
         style="fill-rule:evenodd;stroke:#000000;stroke-width:1pt;stroke-opacity:1;fill:#000000;fill-opacity:1"
         d="M 0.0,0.0 L 5.0,-5.0 L -12.5,0.0 L 5.0,5.0 L 0.0,0.0 z "
         id="path1572" />
    </marker>
    <marker
       style="overflow:visible;"
       id="Arrow1Lend"
       refX="0.0"
       refY="0.0"
       orient="auto">
      <path
         transform="scale(0.8) rotate(180) translate(12.5,0)"
         style="fill-rule:evenodd;stroke:#000000;stroke-width:1pt;stroke-opacity:1;fill:#000000;fill-opacity:1"
         d="M 0.0,0.0 L 5.0,-5.0 L -12.5,0.0 L 5.0,5.0 L 0.0,0.0 z "
         id="path1575" />
    </marker>
    <marker
       style="overflow:visible"
       id="Arrow1Lstart-5"
       refX="0"
       refY="0"
       orient="auto">
      <path
         transform="matrix(0.8,0,0,0.8,10,0)"
         style="fill:#000000;fill-opacity:1;fill-rule:evenodd;stroke:#000000;stroke-width:1pt;stroke-opacity:1"
         d="M 0,0 5,-5 -12.5,0 5,5 Z"
         id="path1572-3" />
    </marker>
    <marker
       style="overflow:visible"
       id="Arrow1Lend-5"
       refX="0"
       refY="0"
       orient="auto">
      <path
         transform="matrix(-0.8,0,0,-0.8,-10,0)"
         style="fill:#000000;fill-opacity:1;fill-rule:evenodd;stroke:#000000;stroke-width:1pt;stroke-opacity:1"
         d="M 0,0 5,-5 -12.5,0 5,5 Z"
         id="path1575-6" />
    </marker>
  </defs>
  <g
     id="g969"
     style="font-size:3.8445px;font-family:sans-serif;letter-spacing:0px;word-spacing:0px"
     transform="matrix(0.38724872,0,0,0.38724872,2.2699734,1.0150342)">
    <path
       d="M 24.288496,80.641778 A 42.5,42.5 -160 0 1 10.063064,35.464144 45,45 -90 0 1 50,5 47.5,47.5 -20 0 1 94.635399,33.754043 50,50 50 0 1 82.13938,88.302222 L 69.283628,72.981333 A 32.5,32.5 -20 0 0 80.54001,38.884345 35,35 -90 0 0 50,15 37.5,37.5 -160 0 0 14.761527,37.174245 40,40 130 0 0 24.288496,80.641778 Z"
       style="fill:#fc5a96"
       id="path967" />
  </g>
  <path
     style="fill:none;fill-opacity:0.242847;stroke:#000000;stroke-width:0.227976;stroke-linecap:round;stroke-linejoin:round;stroke-miterlimit:4;stroke-dasharray:0.227976, 0.455952;stroke-dashoffset:0;paint-order:stroke markers fill;stop-color:#000000"
     id="path1548"
     d="M 11.599582,32.242264 A 15.55119,15.55119 0 0 1 7.2665706,15.041976 15.55119,15.55119 0 0 1 21.867575,4.9704514 15.55119,15.55119 0 0 1 36.407189,15.130399 15.55119,15.55119 0 0 1 31.969875,32.304075" />
  <path
     style="fill:none;stroke:#000000;stroke-width:0.132291;stroke-linecap:butt;stroke-linejoin:miter;stroke-miterlimit:4;stroke-dasharray:none;stroke-opacity:1;marker-start:url(#Arrow1Lstart);marker-end:url(#Arrow1Lend)"
     d="M 40.090381,22.280912 34.054698,21.538611"
     id="path1550-7" />
  <text
     xml:space="preserve"
     style="font-size:3.52777px;line-height:1.25;font-family:sans-serif;letter-spacing:0px;word-spacing:0px;stroke-width:0.0539168"
     x="2.3981721"
     y="35.018379"
     id="text4291"><tspan
       x="2.3981721"
       y="35.018379"
       style="font-size:3.52777px;stroke-width:0.0539168"
       id="tspan4295">from</tspan></text>
  <text
     xml:space="preserve"
     style="font-size:3.52777px;line-height:1.25;font-family:sans-serif;letter-spacing:0px;word-spacing:0px;stroke-width:0.0539168"
     x="31.63905"
     y="4.2978129"
     id="text4291-9"><tspan
       x="31.63905"
       y="4.2978129"
       style="font-size:3.52777px;stroke-width:0.0539168"
       id="tspan4295-7">radius</tspan></text>
  <text
     xml:space="preserve"
     style="font-size:3.52777px;line-height:1.25;font-family:sans-serif;letter-spacing:0px;word-spacing:0px;stroke-width:0.0539168"
     x="26.789608"
     y="34.942348"
     id="text4291-0"><tspan
       x="26.789608"
       y="34.942348"
       style="font-size:3.52777px;stroke-width:0.0539168"
       id="tspan4295-6">to</tspan></text>
  <path
     style="fill:none;stroke:#000000;stroke-width:0.264582px;stroke-linecap:butt;stroke-linejoin:miter;stroke-opacity:1"
     d="m 35.041374,5.2626841 -3.663495,2.966314"
     id="path4365" />
  <circle
     style="fill:#000000;fill-opacity:1;stroke:#000000;stroke-width:0.273808;stroke-linecap:round;stroke-linejoin:round;stroke-miterlimit:4;stroke-dasharray:none;stroke-dashoffset:0;paint-order:stroke markers fill;stop-color:#000000"
     id="path4425"
     cx="11.632377"
     cy="32.314037"
     r="0.45376262" />
  <circle
     style="fill:#000000;fill-opacity:1;stroke:#000000;stroke-width:0.273808;stroke-linecap:round;stroke-linejoin:round;stroke-miterlimit:4;stroke-dasharray:none;stroke-dashoffset:0;paint-order:stroke markers fill;stop-color:#000000"
     id="path4425-0"
     cx="31.764057"
     cy="32.553844"
     r="0.45376262" />
  <text
     xml:space="preserve"
     style="font-size:3.52777px;line-height:1.25;font-family:sans-serif;letter-spacing:0px;word-spacing:0px;stroke-width:0.0539168"
     x="23.046675"
     y="22.429432"
     id="text4291-6"><tspan
       x="23.046675"
       y="22.429432"
       style="font-size:3.52777px;stroke-width:0.0539168"
       id="tspan4295-2">width</tspan></text>
</svg>
